<svg xmlns="http://www.w3.org/2000/svg" version="1.1" xmlns:xlink="http://www.w3.org/1999/xlink" xmlns:svgjs="http://svgjs.com/svgjs" width="256.000000pt" height="256.000000pt"><svg version="1.0" xmlns="http://www.w3.org/2000/svg" width="256.000000pt" height="256.000000pt" viewBox="0 0 256.000000 256.000000" preserveAspectRatio="xMidYMid meet">

<g transform="translate(0.000000,256.000000) scale(0.100000,-0.100000)" fill="#000000" stroke="none">
<path d="M1165 2394 c-170 -70 -387 -139 -592 -189 -104 -25 -201 -49 -218
-53 l-30 -8 -3 -473 c-2 -372 1 -493 12 -569 53 -354 258 -650 582 -840 83
-50 216 -105 306 -127 63 -16 68 -16 149 6 380 102 669 380 799 767 58 175 62
213 67 749 l5 491 -59 12 c-243 47 -578 147 -787 235 -60 25 -112 45 -115 44
-3 0 -55 -21 -116 -45z m221 -124 c156 -64 384 -137 567 -182 l169 -42 -5
-440 c-4 -397 -6 -450 -24 -531 -50 -217 -144 -395 -292 -548 -124 -129 -262
-211 -438 -262 l-85 -25 -91 30 c-238 80 -448 238 -580 437 -62 94 -103 186
-135 303 -26 95 -26 97 -30 559 -2 255 0 467 5 472 4 4 90 29 189 54 184 46
442 129 569 183 39 17 73 31 76 31 3 1 50 -17 105 -39z"></path>
<path d="M1010 1795 l0 -84 58 -3 57 -3 3 -50 c3 -46 -9 -75 -162 -400 -91
-192 -162 -353 -158 -357 18 -18 274 -129 286 -125 15 6 66 110 66 133 0 8
-27 26 -60 41 -34 14 -60 31 -58 38 10 41 234 505 243 502 5 -2 78 -149 160
-327 83 -178 156 -325 163 -328 20 -6 282 119 282 135 0 11 -54 129 -65 141
-1 1 -31 -11 -66 -28 l-64 -30 -16 33 c-9 17 -96 201 -194 409 -139 297 -181
377 -198 382 -12 3 -79 6 -149 6 l-128 0 0 -85z"></path>
</g>
</svg><style>@media (prefers-color-scheme: light) { :root { filter: none; } }
</style></svg>